<svg width="308" height="91" viewBox="0 0 308 91" fill="none" xmlns="http://www.w3.org/2000/svg">
<path d="M110.558 32.6392H103.807V51H99.2656V32.6392H92.6055V28.9609H110.558V32.6392ZM117.142 36.4082C118.303 35.0156 119.761 34.3193 121.517 34.3193C125.069 34.3193 126.87 36.383 126.92 40.5103V51H122.546V40.6313C122.546 39.6929 122.344 39.0016 121.94 38.5576C121.537 38.1035 120.866 37.8765 119.927 37.8765C118.646 37.8765 117.717 38.3709 117.142 39.3599V51H112.768V27.75H117.142V36.4082ZM137.758 51.3027C135.357 51.3027 133.399 50.5661 131.885 49.0928C130.382 47.6195 129.63 45.6567 129.63 43.2046V42.7808C129.63 41.1359 129.948 39.6676 130.583 38.376C131.219 37.0742 132.117 36.0752 133.278 35.3789C134.448 34.6725 135.78 34.3193 137.274 34.3193C139.514 34.3193 141.275 35.0257 142.557 36.4385C143.848 37.8512 144.494 39.8543 144.494 42.4478V44.2339H134.065C134.206 45.3035 134.63 46.1613 135.336 46.8071C136.053 47.453 136.956 47.7759 138.046 47.7759C139.731 47.7759 141.048 47.1654 141.997 45.9443L144.146 48.3511C143.49 49.2795 142.602 50.006 141.482 50.5308C140.362 51.0454 139.121 51.3027 137.758 51.3027ZM137.259 37.8613C136.391 37.8613 135.685 38.154 135.14 38.7393C134.605 39.3245 134.262 40.1621 134.11 41.252H140.195V40.9038C140.175 39.9351 139.913 39.1883 139.408 38.6636C138.904 38.1287 138.187 37.8613 137.259 37.8613ZM154.999 51V28.9609H161.78C163.718 28.9609 165.448 29.3999 166.972 30.2778C168.506 31.1457 169.702 32.3869 170.56 34.0015C171.417 35.606 171.846 37.4325 171.846 39.481V40.4951C171.846 42.5436 171.422 44.3651 170.575 45.9595C169.737 47.5539 168.551 48.79 167.018 49.668C165.484 50.5459 163.753 50.9899 161.826 51H154.999ZM159.54 32.6392V47.3521H161.735C163.511 47.3521 164.868 46.7718 165.807 45.6113C166.745 44.4508 167.224 42.7909 167.245 40.6313V39.4658C167.245 37.2256 166.78 35.5303 165.852 34.3799C164.924 33.2194 163.566 32.6392 161.78 32.6392H159.54ZM174.192 42.6597C174.192 41.035 174.505 39.5869 175.131 38.3154C175.757 37.0439 176.655 36.0601 177.825 35.3638C179.006 34.6675 180.373 34.3193 181.927 34.3193C184.137 34.3193 185.938 34.9954 187.331 36.3477C188.734 37.6999 189.516 39.5365 189.677 41.8574L189.708 42.9775C189.708 45.4902 189.006 47.5085 187.604 49.0322C186.201 50.5459 184.319 51.3027 181.958 51.3027C179.596 51.3027 177.709 50.5459 176.296 49.0322C174.894 47.5186 174.192 45.46 174.192 42.8564V42.6597ZM178.567 42.9775C178.567 44.5316 178.86 45.7223 179.445 46.5498C180.03 47.3672 180.868 47.7759 181.958 47.7759C183.017 47.7759 183.845 47.3722 184.44 46.5649C185.035 45.7476 185.333 44.4458 185.333 42.6597C185.333 41.1359 185.035 39.9552 184.44 39.1177C183.845 38.2801 183.007 37.8613 181.927 37.8613C180.858 37.8613 180.03 38.2801 179.445 39.1177C178.86 39.9451 178.567 41.2318 178.567 42.9775ZM199.213 47.7759C200.021 47.7759 200.677 47.5539 201.181 47.1099C201.686 46.6659 201.948 46.0755 201.968 45.3389H206.07C206.06 46.4489 205.757 47.4681 205.162 48.3965C204.567 49.3148 203.749 50.0312 202.71 50.5459C201.681 51.0505 200.54 51.3027 199.289 51.3027C196.948 51.3027 195.101 50.561 193.749 49.0776C192.397 47.5841 191.721 45.5256 191.721 42.9019V42.6143C191.721 40.0915 192.392 38.0783 193.734 36.5747C195.076 35.0711 196.918 34.3193 199.259 34.3193C201.307 34.3193 202.947 34.9046 204.178 36.0752C205.419 37.2357 206.05 38.7847 206.07 40.7222H201.968C201.948 39.8745 201.686 39.1883 201.181 38.6636C200.677 38.1287 200.011 37.8613 199.183 37.8613C198.164 37.8613 197.392 38.2347 196.867 38.9814C196.353 39.7181 196.095 40.9189 196.095 42.584V43.0381C196.095 44.7233 196.353 45.9342 196.867 46.6709C197.382 47.4076 198.164 47.7759 199.213 47.7759ZM213.805 30.5957V34.6221H216.605V37.8311H213.805V46.0049C213.805 46.6104 213.921 47.0443 214.153 47.3066C214.385 47.569 214.829 47.7002 215.485 47.7002C215.97 47.7002 216.399 47.6649 216.772 47.5942V50.9092C215.914 51.1715 215.031 51.3027 214.123 51.3027C211.055 51.3027 209.491 49.7537 209.431 46.6558V37.8311H207.039V34.6221H209.431V30.5957H213.805ZM217.907 42.6597C217.907 41.035 218.22 39.5869 218.846 38.3154C219.471 37.0439 220.369 36.0601 221.54 35.3638C222.721 34.6675 224.088 34.3193 225.642 34.3193C227.852 34.3193 229.653 34.9954 231.046 36.3477C232.449 37.6999 233.231 39.5365 233.392 41.8574L233.422 42.9775C233.422 45.4902 232.721 47.5085 231.318 49.0322C229.916 50.5459 228.034 51.3027 225.672 51.3027C223.311 51.3027 221.424 50.5459 220.011 49.0322C218.609 47.5186 217.907 45.46 217.907 42.8564V42.6597ZM222.282 42.9775C222.282 44.5316 222.574 45.7223 223.16 46.5498C223.745 47.3672 224.583 47.7759 225.672 47.7759C226.732 47.7759 227.559 47.3722 228.155 46.5649C228.75 45.7476 229.048 44.4458 229.048 42.6597C229.048 41.1359 228.75 39.9552 228.155 39.1177C227.559 38.2801 226.722 37.8613 225.642 37.8613C224.572 37.8613 223.745 38.2801 223.16 39.1177C222.574 39.9451 222.282 41.2318 222.282 42.9775ZM245.32 38.7241C244.724 38.6434 244.2 38.603 243.746 38.603C242.091 38.603 241.006 39.1631 240.491 40.2832V51H236.117V34.6221H240.249L240.37 36.5747C241.248 35.0711 242.464 34.3193 244.018 34.3193C244.502 34.3193 244.957 34.3849 245.38 34.5161L245.32 38.7241ZM268.706 41.9937H259.987V51H255.446V28.9609H269.796V32.6392H259.987V38.3306H268.706V41.9937ZM276.759 51H272.369V34.6221H276.759V51ZM272.112 30.3838C272.112 29.7279 272.329 29.188 272.763 28.7642C273.207 28.3403 273.807 28.1284 274.564 28.1284C275.311 28.1284 275.906 28.3403 276.35 28.7642C276.794 29.188 277.016 29.7279 277.016 30.3838C277.016 31.0498 276.789 31.5947 276.335 32.0186C275.891 32.4424 275.301 32.6543 274.564 32.6543C273.827 32.6543 273.232 32.4424 272.778 32.0186C272.334 31.5947 272.112 31.0498 272.112 30.3838ZM286.613 39.5112L289.368 34.6221H294.045L289.383 42.6445L294.242 51H289.549L286.628 45.8535L283.722 51H279.014L283.873 42.6445L279.226 34.6221H283.918L286.613 39.5112Z" fill="white"/>
<path d="M67.4639 71.0205H62.5068L61.4697 74H59.1582L63.9922 61.2031H65.9873L70.8301 74H68.5098L67.4639 71.0205ZM63.1309 69.2275H66.8398L64.9854 63.9189L63.1309 69.2275ZM86.9229 74H84.6992L78.9951 64.9209V74H76.7715V61.2031H78.9951L84.7168 70.3174V61.2031H86.9229V74ZM93.5322 74.1758C92.1787 74.1758 91.0801 73.751 90.2363 72.9014C89.3984 72.0459 88.9795 70.9092 88.9795 69.4912V69.2275C88.9795 68.2783 89.1611 67.4316 89.5244 66.6875C89.8936 65.9375 90.4092 65.3545 91.0713 64.9385C91.7334 64.5225 92.4717 64.3145 93.2861 64.3145C94.5811 64.3145 95.5801 64.7275 96.2832 65.5537C96.9922 66.3799 97.3467 67.5488 97.3467 69.0605V69.9219H91.1328C91.1973 70.707 91.458 71.3281 91.915 71.7852C92.3779 72.2422 92.958 72.4707 93.6553 72.4707C94.6338 72.4707 95.4307 72.0752 96.0459 71.2842L97.1973 72.3828C96.8164 72.9512 96.3066 73.3936 95.668 73.71C95.0352 74.0205 94.3232 74.1758 93.5322 74.1758ZM93.2773 66.0283C92.6914 66.0283 92.2168 66.2334 91.8535 66.6436C91.4961 67.0537 91.2676 67.625 91.168 68.3574H95.2373V68.1992C95.1904 67.4844 95 66.9453 94.666 66.582C94.332 66.2129 93.8691 66.0283 93.2773 66.0283ZM107.366 71.0557L108.878 64.4902H110.961L108.368 74H106.61L104.571 67.4697L102.567 74H100.81L98.208 64.4902H100.291L101.829 70.9854L103.78 64.4902H105.389L107.366 71.0557ZM124.558 68.2871H119.302V72.2246H125.445V74H117.078V61.2031H125.384V62.9961H119.302V66.5293H124.558V68.2871ZM132.028 66.4414C131.747 66.3945 131.457 66.3711 131.158 66.3711C130.18 66.3711 129.521 66.7461 129.181 67.4961V74H127.045V64.4902H129.084L129.137 65.5537C129.652 64.7275 130.367 64.3145 131.281 64.3145C131.586 64.3145 131.838 64.3555 132.037 64.4375L132.028 66.4414ZM138.796 74C138.702 73.8184 138.62 73.5225 138.55 73.1123C137.87 73.8213 137.038 74.1758 136.054 74.1758C135.099 74.1758 134.319 73.9033 133.716 73.3584C133.112 72.8135 132.811 72.1396 132.811 71.3369C132.811 70.3232 133.186 69.5469 133.936 69.0078C134.691 68.4629 135.77 68.1904 137.17 68.1904H138.479V67.5664C138.479 67.0742 138.342 66.6816 138.066 66.3887C137.791 66.0898 137.372 65.9404 136.81 65.9404C136.323 65.9404 135.925 66.0635 135.614 66.3096C135.304 66.5498 135.148 66.8574 135.148 67.2324H133.013C133.013 66.7109 133.186 66.2246 133.531 65.7734C133.877 65.3164 134.346 64.959 134.938 64.7012C135.535 64.4434 136.2 64.3145 136.933 64.3145C138.046 64.3145 138.934 64.5957 139.596 65.1582C140.258 65.7148 140.598 66.5 140.615 67.5137V71.8027C140.615 72.6582 140.735 73.3408 140.976 73.8506V74H138.796ZM136.449 72.4619C136.871 72.4619 137.267 72.3594 137.636 72.1543C138.011 71.9492 138.292 71.6738 138.479 71.3281V69.5352H137.328C136.537 69.5352 135.942 69.6729 135.544 69.9482C135.146 70.2236 134.946 70.6133 134.946 71.1172C134.946 71.5273 135.081 71.8555 135.351 72.1016C135.626 72.3418 135.992 72.4619 136.449 72.4619ZM146.935 69.1572C146.935 68.2256 147.119 67.3877 147.488 66.6436C147.857 65.8936 148.376 65.3193 149.044 64.9209C149.712 64.5166 150.479 64.3145 151.347 64.3145C152.63 64.3145 153.67 64.7275 154.467 65.5537C155.27 66.3799 155.703 67.4756 155.768 68.8408L155.776 69.3418C155.776 70.2793 155.595 71.1172 155.231 71.8555C154.874 72.5938 154.358 73.165 153.685 73.5693C153.017 73.9736 152.243 74.1758 151.364 74.1758C150.022 74.1758 148.947 73.7305 148.139 72.8398C147.336 71.9434 146.935 70.751 146.935 69.2627V69.1572ZM149.07 69.3418C149.07 70.3203 149.272 71.0879 149.677 71.6445C150.081 72.1953 150.644 72.4707 151.364 72.4707C152.085 72.4707 152.645 72.1895 153.043 71.627C153.447 71.0645 153.649 70.2412 153.649 69.1572C153.649 68.1963 153.441 67.4346 153.025 66.8721C152.615 66.3096 152.056 66.0283 151.347 66.0283C150.649 66.0283 150.096 66.3066 149.686 66.8633C149.275 67.4141 149.07 68.2402 149.07 69.3418ZM158.334 74V66.0723H156.884V64.4902H158.334V63.6201C158.334 62.5654 158.627 61.751 159.213 61.1768C159.799 60.6025 160.619 60.3154 161.674 60.3154C162.049 60.3154 162.447 60.3682 162.869 60.4736L162.816 62.1436C162.582 62.0967 162.31 62.0732 161.999 62.0732C160.979 62.0732 160.47 62.5977 160.47 63.6465V64.4902H162.403V66.0723H160.47V74H158.334ZM171.535 61.2031L175.227 71.0117L178.909 61.2031H181.783V74H179.568V69.7812L179.788 64.1387L176.009 74H174.418L170.647 64.1475L170.867 69.7812V74H168.652V61.2031H171.535ZM183.813 69.1572C183.813 68.2256 183.998 67.3877 184.367 66.6436C184.736 65.8936 185.255 65.3193 185.923 64.9209C186.591 64.5166 187.358 64.3145 188.226 64.3145C189.509 64.3145 190.549 64.7275 191.346 65.5537C192.148 66.3799 192.582 67.4756 192.646 68.8408L192.655 69.3418C192.655 70.2793 192.474 71.1172 192.11 71.8555C191.753 72.5938 191.237 73.165 190.563 73.5693C189.896 73.9736 189.122 74.1758 188.243 74.1758C186.901 74.1758 185.826 73.7305 185.018 72.8398C184.215 71.9434 183.813 70.751 183.813 69.2627V69.1572ZM185.949 69.3418C185.949 70.3203 186.151 71.0879 186.556 71.6445C186.96 72.1953 187.522 72.4707 188.243 72.4707C188.964 72.4707 189.523 72.1895 189.922 71.627C190.326 71.0645 190.528 70.2412 190.528 69.1572C190.528 68.1963 190.32 67.4346 189.904 66.8721C189.494 66.3096 188.935 66.0283 188.226 66.0283C187.528 66.0283 186.975 66.3066 186.564 66.8633C186.154 67.4141 185.949 68.2402 185.949 69.3418ZM194.062 69.1748C194.062 67.71 194.401 66.5352 195.081 65.6504C195.761 64.7598 196.672 64.3145 197.814 64.3145C198.822 64.3145 199.637 64.666 200.258 65.3691V60.5H202.394V74H200.46L200.354 73.0156C199.716 73.7891 198.863 74.1758 197.797 74.1758C196.684 74.1758 195.781 73.7275 195.09 72.8311C194.404 71.9346 194.062 70.7158 194.062 69.1748ZM196.197 69.3594C196.197 70.3262 196.382 71.082 196.751 71.627C197.126 72.166 197.656 72.4355 198.342 72.4355C199.215 72.4355 199.854 72.0459 200.258 71.2666V67.2061C199.865 66.4443 199.232 66.0635 198.359 66.0635C197.668 66.0635 197.135 66.3389 196.76 66.8896C196.385 67.4346 196.197 68.2578 196.197 69.3594ZM208.81 74.1758C207.456 74.1758 206.357 73.751 205.514 72.9014C204.676 72.0459 204.257 70.9092 204.257 69.4912V69.2275C204.257 68.2783 204.438 67.4316 204.802 66.6875C205.171 65.9375 205.687 65.3545 206.349 64.9385C207.011 64.5225 207.749 64.3145 208.563 64.3145C209.858 64.3145 210.857 64.7275 211.561 65.5537C212.27 66.3799 212.624 67.5488 212.624 69.0605V69.9219H206.41C206.475 70.707 206.735 71.3281 207.192 71.7852C207.655 72.2422 208.235 72.4707 208.933 72.4707C209.911 72.4707 210.708 72.0752 211.323 71.2842L212.475 72.3828C212.094 72.9512 211.584 73.3936 210.945 73.71C210.312 74.0205 209.601 74.1758 208.81 74.1758ZM208.555 66.0283C207.969 66.0283 207.494 66.2334 207.131 66.6436C206.773 67.0537 206.545 67.625 206.445 68.3574H210.515V68.1992C210.468 67.4844 210.277 66.9453 209.943 66.582C209.609 66.2129 209.146 66.0283 208.555 66.0283ZM219.269 66.4414C218.987 66.3945 218.697 66.3711 218.398 66.3711C217.42 66.3711 216.761 66.7461 216.421 67.4961V74H214.285V64.4902H216.324L216.377 65.5537C216.893 64.7275 217.607 64.3145 218.521 64.3145C218.826 64.3145 219.078 64.3555 219.277 64.4375L219.269 66.4414ZM222.6 64.4902L222.661 65.5889C223.364 64.7393 224.287 64.3145 225.43 64.3145C227.41 64.3145 228.418 65.4482 228.453 67.7158V74H226.317V67.8389C226.317 67.2354 226.186 66.79 225.922 66.5029C225.664 66.21 225.239 66.0635 224.647 66.0635C223.786 66.0635 223.145 66.4531 222.723 67.2324V74H220.587V64.4902H222.6ZM238.209 61.2031L241.9 71.0117L245.583 61.2031H248.457V74H246.242V69.7812L246.462 64.1387L242.683 74H241.092L237.321 64.1475L237.541 69.7812V74H235.326V61.2031H238.209ZM255.075 74.1758C253.722 74.1758 252.623 73.751 251.779 72.9014C250.941 72.0459 250.522 70.9092 250.522 69.4912V69.2275C250.522 68.2783 250.704 67.4316 251.067 66.6875C251.437 65.9375 251.952 65.3545 252.614 64.9385C253.276 64.5225 254.015 64.3145 254.829 64.3145C256.124 64.3145 257.123 64.7275 257.826 65.5537C258.535 66.3799 258.89 67.5488 258.89 69.0605V69.9219H252.676C252.74 70.707 253.001 71.3281 253.458 71.7852C253.921 72.2422 254.501 72.4707 255.198 72.4707C256.177 72.4707 256.974 72.0752 257.589 71.2842L258.74 72.3828C258.359 72.9512 257.85 73.3936 257.211 73.71C256.578 74.0205 255.866 74.1758 255.075 74.1758ZM254.82 66.0283C254.234 66.0283 253.76 66.2334 253.396 66.6436C253.039 67.0537 252.811 67.625 252.711 68.3574H256.78V68.1992C256.733 67.4844 256.543 66.9453 256.209 66.582C255.875 66.2129 255.412 66.0283 254.82 66.0283ZM260.155 69.1748C260.155 67.71 260.495 66.5352 261.175 65.6504C261.854 64.7598 262.766 64.3145 263.908 64.3145C264.916 64.3145 265.73 64.666 266.352 65.3691V60.5H268.487V74H266.554L266.448 73.0156C265.81 73.7891 264.957 74.1758 263.891 74.1758C262.777 74.1758 261.875 73.7275 261.184 72.8311C260.498 71.9346 260.155 70.7158 260.155 69.1748ZM262.291 69.3594C262.291 70.3262 262.476 71.082 262.845 71.627C263.22 72.166 263.75 72.4355 264.436 72.4355C265.309 72.4355 265.947 72.0459 266.352 71.2666V67.2061C265.959 66.4443 265.326 66.0635 264.453 66.0635C263.762 66.0635 263.229 66.3389 262.854 66.8896C262.479 67.4346 262.291 68.2578 262.291 69.3594ZM272.987 74H270.852V64.4902H272.987V74ZM270.72 62.0205C270.72 61.6924 270.822 61.4199 271.027 61.2031C271.238 60.9863 271.537 60.8779 271.924 60.8779C272.311 60.8779 272.609 60.9863 272.82 61.2031C273.031 61.4199 273.137 61.6924 273.137 62.0205C273.137 62.3428 273.031 62.6123 272.82 62.8291C272.609 63.04 272.311 63.1455 271.924 63.1455C271.537 63.1455 271.238 63.04 271.027 62.8291C270.822 62.6123 270.72 62.3428 270.72 62.0205ZM279.228 72.4707C279.761 72.4707 280.203 72.3154 280.555 72.0049C280.906 71.6943 281.094 71.3105 281.117 70.8535H283.13C283.106 71.4453 282.922 71.999 282.576 72.5146C282.23 73.0244 281.762 73.4287 281.17 73.7275C280.578 74.0264 279.939 74.1758 279.254 74.1758C277.924 74.1758 276.869 73.7451 276.09 72.8838C275.311 72.0225 274.921 70.833 274.921 69.3154V69.0957C274.921 67.6484 275.308 66.4912 276.081 65.624C276.854 64.751 277.909 64.3145 279.245 64.3145C280.376 64.3145 281.296 64.6455 282.005 65.3076C282.72 65.9639 283.095 66.8281 283.13 67.9004H281.117C281.094 67.3555 280.906 66.9072 280.555 66.5557C280.209 66.2041 279.767 66.0283 279.228 66.0283C278.536 66.0283 278.003 66.2803 277.628 66.7842C277.253 67.2822 277.062 68.041 277.057 69.0605V69.4033C277.057 70.4346 277.241 71.2051 277.61 71.7148C277.985 72.2188 278.524 72.4707 279.228 72.4707ZM287.015 74H284.879V64.4902H287.015V74ZM284.747 62.0205C284.747 61.6924 284.85 61.4199 285.055 61.2031C285.266 60.9863 285.564 60.8779 285.951 60.8779C286.338 60.8779 286.637 60.9863 286.848 61.2031C287.059 61.4199 287.164 61.6924 287.164 62.0205C287.164 62.3428 287.059 62.6123 286.848 62.8291C286.637 63.04 286.338 63.1455 285.951 63.1455C285.564 63.1455 285.266 63.04 285.055 62.8291C284.85 62.6123 284.747 62.3428 284.747 62.0205ZM291.33 64.4902L291.392 65.5889C292.095 64.7393 293.018 64.3145 294.16 64.3145C296.141 64.3145 297.148 65.4482 297.184 67.7158V74H295.048V67.8389C295.048 67.2354 294.916 66.79 294.652 66.5029C294.395 66.21 293.97 66.0635 293.378 66.0635C292.517 66.0635 291.875 66.4531 291.453 67.2324V74H289.317V64.4902H291.33ZM303.556 74.1758C302.202 74.1758 301.104 73.751 300.26 72.9014C299.422 72.0459 299.003 70.9092 299.003 69.4912V69.2275C299.003 68.2783 299.185 67.4316 299.548 66.6875C299.917 65.9375 300.433 65.3545 301.095 64.9385C301.757 64.5225 302.495 64.3145 303.31 64.3145C304.604 64.3145 305.604 64.7275 306.307 65.5537C307.016 66.3799 307.37 67.5488 307.37 69.0605V69.9219H301.156C301.221 70.707 301.481 71.3281 301.938 71.7852C302.401 72.2422 302.981 72.4707 303.679 72.4707C304.657 72.4707 305.454 72.0752 306.069 71.2842L307.221 72.3828C306.84 72.9512 306.33 73.3936 305.691 73.71C305.059 74.0205 304.347 74.1758 303.556 74.1758ZM303.301 66.0283C302.715 66.0283 302.24 66.2334 301.877 66.6436C301.52 67.0537 301.291 67.625 301.191 68.3574H305.261V68.1992C305.214 67.4844 305.023 66.9453 304.689 66.582C304.355 66.2129 303.893 66.0283 303.301 66.0283Z" fill="white"/>
<path d="M0 38V45.5H23.5L28 57L34 29L44.5 91L52.5 45.5H75.5V38H57L52 22L44.5 58.5L34 0L27 38H0Z" fill="white"/>
<circle cx="76" cy="41.5" r="7" fill="white"/>
</svg>
